<svg width="575" height="247" viewBox="0 0 575 247" fill="none" xmlns="http://www.w3.org/2000/svg">
<path d="M299.846 106.869V167.617C299.304 167.852 298.49 168.048 297.404 168.205C296.397 168.44 295.311 168.557 294.148 168.557C291.745 168.557 290.039 168.127 289.032 167.265C288.024 166.325 287.52 164.797 287.52 162.682V106.869H266.937C266.549 106.32 266.201 105.615 265.89 104.754C265.658 103.892 265.542 102.913 265.542 101.816C265.542 100.093 265.929 98.8 266.704 97.9384C267.557 96.9983 268.681 96.5283 270.077 96.5283H320.662C320.972 96.9983 321.243 97.6642 321.476 98.5259C321.786 99.3876 321.941 100.328 321.941 101.346C321.941 105.028 320.429 106.869 317.406 106.869H299.846Z" fill="#1B184E"/>
<path d="M342.201 167.97C340.186 167.97 338.558 167.343 337.317 166.09C336.077 164.837 335.457 163.192 335.457 161.155V103.226C335.457 101.189 336.077 99.5834 337.317 98.4084C338.558 97.155 340.186 96.5283 342.201 96.5283H380.692C381.08 96.9983 381.39 97.6642 381.623 98.5259C381.933 99.3876 382.088 100.328 382.088 101.346C382.088 103.069 381.662 104.401 380.809 105.341C380.034 106.281 378.948 106.751 377.553 106.751H347.783V126.257H377.204C377.591 126.727 377.902 127.392 378.134 128.254C378.444 129.116 378.599 130.056 378.599 131.074C378.599 132.876 378.173 134.208 377.32 135.069C376.545 135.931 375.46 136.362 374.064 136.362H347.783V157.747H381.274C381.584 158.217 381.894 158.883 382.204 159.745C382.514 160.606 382.669 161.546 382.669 162.565C382.669 164.367 382.243 165.737 381.39 166.677C380.615 167.539 379.53 167.97 378.134 167.97H342.201Z" fill="#1B184E"/>
<path d="M426.409 106.869V167.617C425.866 167.852 425.052 168.048 423.967 168.205C422.959 168.44 421.874 168.557 420.711 168.557C418.308 168.557 416.602 168.127 415.594 167.265C414.586 166.325 414.082 164.797 414.082 162.682V106.869H393.5C393.112 106.32 392.763 105.615 392.453 104.754C392.22 103.892 392.104 102.913 392.104 101.816C392.104 100.093 392.492 98.8 393.267 97.9384C394.12 96.9983 395.244 96.5283 396.639 96.5283H447.224C447.534 96.9983 447.806 97.6642 448.038 98.5259C448.348 99.3876 448.503 100.328 448.503 101.346C448.503 105.028 446.992 106.869 443.968 106.869H426.409Z" fill="#1B184E"/>
<path d="M519 142.824C519 146.819 518.341 150.462 517.023 153.752C515.783 157.042 513.922 159.862 511.441 162.212C509.038 164.562 506.053 166.364 502.487 167.617C498.999 168.871 494.967 169.497 490.393 169.497C485.897 169.497 481.866 168.871 478.299 167.617C474.811 166.364 471.826 164.562 469.345 162.212C466.942 159.862 465.081 157.042 463.763 153.752C462.523 150.462 461.903 146.819 461.903 142.824V96.5283C462.446 96.3717 463.26 96.215 464.345 96.0583C465.43 95.8233 466.554 95.7058 467.717 95.7058C469.965 95.7058 471.632 96.1367 472.718 96.9983C473.803 97.86 474.346 99.3876 474.346 101.581V142.119C474.346 147.681 475.857 151.911 478.881 154.81C481.982 157.708 485.819 159.157 490.393 159.157C492.719 159.157 494.851 158.805 496.789 158.1C498.727 157.316 500.433 156.22 501.906 154.81C503.379 153.4 504.503 151.637 505.278 149.522C506.131 147.407 506.557 144.939 506.557 142.119V96.5283C507.1 96.3717 507.914 96.215 508.999 96.0583C510.085 95.8233 511.209 95.7058 512.372 95.7058C514.62 95.7058 516.287 96.1367 517.372 96.9983C518.457 97.86 519 99.3876 519 101.581V142.824Z" fill="#1B184E"/>
<circle cx="135" cy="75" r="26" fill="#04A8F0"/>
<path fill-rule="evenodd" clip-rule="evenodd" d="M135 116C108.49 116 87 94.5101 87 68.0005C88.0797 55.0053 77.0069 55.0007 74.0028 58.527C73.7737 58.7354 73.5549 58.9723 73.3479 59.2392C63.1008 72.4518 57 89.0465 57 107.067C57 122.917 72.0169 133.021 87.8662 133.021H182.134C197.983 133.021 213 122.917 213 107.067C213 89.0465 206.899 72.4518 196.652 59.2392C196.441 58.9666 196.217 58.7252 195.982 58.5134C192.957 55.0046 181.922 55.0307 183 68.0044C182.998 94.5122 161.508 116 135 116Z" fill="#686DF1"/>
<path d="M143.212 194.183L165.085 162.707C169.693 156.076 164.948 147 156.873 147H135H113.127C105.052 147 100.307 156.076 104.915 162.707L126.788 194.183C130.766 199.907 139.234 199.907 143.212 194.183Z" fill="#04A8F0"/>
</svg>
