<svg width="45" height="44" viewBox="0 0 45 44" fill="none" xmlns="http://www.w3.org/2000/svg">
<path d="M20.478 40.956C31.7877 40.956 40.956 31.7877 40.956 20.478C40.956 9.16831 31.7877 0 20.478 0C9.16831 0 0 9.16831 0 20.478C0 31.7877 9.16831 40.956 20.478 40.956Z" fill="#F87171"/>
<path d="M20.3993 15.605C19.9464 15.2017 19.0485 14.6455 17.4906 14.6528C15.9327 14.6601 16.1873 15.4461 16.1873 15.4461C16.1873 15.4461 16.1554 16.0874 17.173 16.1074C18.1905 16.1273 19.2814 16.1668 20.1664 16.4911C21.0514 16.8154 20.8526 16.0076 20.3993 15.605Z" fill="black"/>
<path d="M16.7174 17.0699C16.6237 17.1252 16.5997 17.2806 16.7083 17.3003C17.3236 17.41 18.2969 17.6095 19.3825 17.4381C19.4854 17.4219 19.47 17.2846 19.3955 17.2134C19.0104 16.8447 17.976 16.3277 16.7174 17.0699Z" fill="black"/>
<path d="M29.5188 27.3841C29.5045 27.3645 29.4851 27.3489 29.4624 27.3394C29.4399 27.3298 29.415 27.3267 29.3907 27.3302C29.3662 27.3337 29.3434 27.3437 29.3245 27.3591C29.3056 27.3745 29.2913 27.3946 29.2835 27.4175C28.6503 29.2597 28.1318 28.8084 27.8923 28.4123C27.8091 28.2723 27.747 28.1213 27.708 27.964C27.1036 25.6106 27.657 23.443 27.657 23.443C27.9859 24.4447 28.8486 24.7417 29.2905 24.8285C29.3157 24.8336 29.3418 24.8315 29.3658 24.8225C29.3897 24.8136 29.4105 24.798 29.4259 24.778C29.4412 24.7579 29.4504 24.7337 29.4521 24.7088C29.454 24.6837 29.4486 24.6587 29.4364 24.6366C27.7432 21.389 28.7443 20.0127 28.7443 20.0127C29.0357 20.3297 29.5161 20.3581 29.8186 20.3416C29.8442 20.3402 29.8688 20.3318 29.8896 20.3173C29.9104 20.3029 29.9266 20.2829 29.9363 20.2599C29.946 20.2367 29.949 20.2114 29.9447 20.1868C29.9404 20.1622 29.929 20.1392 29.912 20.1206C28.6851 18.795 28.5917 18.3452 28.5439 16.1001C28.5177 14.8559 28.071 14.2015 27.6558 13.8607C27.1806 13.4712 26.8014 12.975 26.5939 12.4024C24.9385 7.84838 21.8411 7.24661 18.9669 7.41701C15.3987 7.62885 13.4989 10.3015 12.5971 11.6333C11.643 13.0414 10.8996 15.1234 10.9498 15.7605C11 16.3975 11.6007 16.2978 11.6007 17.0342C11.6007 17.7708 10.4377 18.3832 10.8949 20.4537C11.0968 21.366 11.9144 22.0499 11.5466 24.1339C10.889 27.8793 13.8224 32.4301 14.5533 33.1091C14.6419 33.1907 14.7976 33.1248 14.7815 33.0065C14.6674 32.1706 14.8345 31.0108 14.8345 31.0108C16.3041 34.0938 20.4158 33.522 21.7035 33.2575C21.7308 33.2519 21.7557 33.2383 21.7748 33.2185C21.7938 33.1986 21.8062 33.1734 21.81 33.1464C21.814 33.1194 21.8092 33.0919 21.7965 33.0676C21.7838 33.0434 21.7638 33.0235 21.7392 33.0108C20.4389 32.3349 20.1418 30.9618 20.1418 30.9618C21.4357 31.5612 22.2646 31.4607 22.6642 31.3321C22.6885 31.3242 22.7099 31.3097 22.7261 31.2902C22.7423 31.2708 22.7526 31.2473 22.7556 31.2224C22.7588 31.1975 22.7545 31.1722 22.7436 31.1497C22.7326 31.127 22.7153 31.108 22.6936 31.0945C22.3039 30.8551 21.7098 29.8664 21.2604 28.8989C21.076 28.4996 21.0104 28.0575 21.0717 27.6235C21.1328 27.1894 21.3182 26.7812 21.6063 26.4458C22.1321 25.8318 22.8218 24.9747 23.606 24.064C23.77 23.8721 23.9981 24.0594 24.0845 24.2674C25.2301 27.0747 26.7206 29.191 27.748 29.7743C28.493 30.2245 29.3089 30.3055 29.6756 30.0223C30.6865 29.2421 29.885 27.8961 29.5188 27.3841ZM17.1153 24.7714C15.8865 24.8439 16.1665 23.2808 15.2638 23.319C14.2969 23.3612 14.5866 24.5533 13.9381 24.6258C13.2895 24.6983 13.3652 22.8755 13.8204 22.6639C14.5376 22.3316 15.3775 22.2518 16.05 22.2748C16.8467 22.3016 17.6079 22.2713 17.9651 23.0212C18.3881 23.9059 18.3438 24.7007 17.1153 24.7714ZM24.8866 13.6009C23.2528 14.5512 23.1566 15.0209 22.9226 16.6919C22.8709 17.0591 22.8183 17.489 22.9901 17.732C23.3779 18.2803 24.1154 18.6864 23.913 19.6125C23.4308 21.8165 22.1591 24.4005 20.4534 25.2081C20.248 25.3052 20.0127 25.1087 19.9649 24.8906C19.7747 24.0172 19.3222 22.4291 19.1999 21.9106C18.5924 18.9405 15.6979 18.8994 15.6167 19.4674C15.5928 19.6363 16.203 19.8589 16.5903 19.9824C16.9459 20.0976 16.9581 20.5942 16.604 20.7116C16.5111 20.7405 16.4145 20.7558 16.317 20.7569C15.6014 20.7089 14.6937 20.7634 14.2843 20.7926C14.1473 20.8026 14.0114 20.7624 13.9031 20.6797C13.7947 20.5969 13.7218 20.4777 13.6985 20.3451C13.5385 19.436 13.8212 19.1101 14.1632 18.2467C14.3333 17.8168 14.5517 16.9502 14.6274 16.5057C14.6666 16.2674 14.6498 15.9811 14.6243 15.7666C14.5933 15.513 14.5811 15.2575 14.5878 15.0021C14.6121 14.1781 14.6956 13.5054 15.3368 13.5054C16.4916 13.5054 18.9351 13.5088 19.3222 12.9531C19.7281 12.3713 17.4631 12.9354 15.0293 12.8587C14.9817 12.8571 14.9363 12.8387 14.9016 12.8067C14.8669 12.7748 14.8453 12.7316 14.8407 12.6852C14.8407 12.6706 14.838 12.6564 14.8364 12.6418C14.8327 12.6003 14.8379 12.5584 14.8515 12.5188C14.8651 12.4793 14.8869 12.4429 14.9155 12.4119C14.9442 12.381 14.979 12.3562 15.0179 12.339C15.0568 12.3218 15.0988 12.3127 15.1415 12.3122C16.4413 12.2964 17.4303 12.2082 17.6903 11.8374C17.9546 11.4582 16.641 11.6283 15.1521 11.6417C14.9615 11.6417 14.8039 11.639 14.8137 11.4529V11.4467C14.8177 11.3729 14.8493 11.303 14.9025 11.2505C14.9557 11.198 15.0268 11.1665 15.1023 11.162C15.9782 11.1056 16.3516 11.0403 16.3884 10.7663C16.4252 10.4923 16.2983 10.5199 15.3297 10.5744C15.1191 10.5859 15.1795 10.4297 15.2991 10.2589C15.6014 9.82333 16.9531 8.56682 19.9437 8.65854C25.0671 8.81821 24.9052 12.3697 25.062 13.2325C25.0746 13.3041 25.0646 13.3777 25.0333 13.4436C25.002 13.5094 24.9508 13.5643 24.8866 13.6009Z" fill="black"/>
<circle cx="33.5157" cy="33.4843" r="10.5157" fill="#1B184E"/>
<circle cx="33.5157" cy="29.4106" r="2.46314" fill="#04A8F0"/>
<path fill-rule="evenodd" clip-rule="evenodd" d="M28.9684 28.7476V28.7475L28.9684 28.7475C29.0707 27.5164 28.0217 27.516 27.7371 27.8501C27.7154 27.8698 27.6947 27.8923 27.675 27.9175C26.7043 29.1693 26.1263 30.7414 26.1263 32.4486C26.1263 33.9501 27.5489 34.9073 29.0504 34.9073H37.981C39.4825 34.9073 40.9051 33.9501 40.9051 32.4486C40.9051 30.7414 40.3272 29.1693 39.3564 27.9176C39.3365 27.8919 39.3154 27.8691 39.2933 27.8491C39.0071 27.5163 37.9609 27.5183 38.063 28.7479L38.0631 28.7478C38.0629 31.2591 36.0271 33.2949 33.5157 33.2949C31.0043 33.2949 28.9684 31.259 28.9684 28.7476Z" fill="#686DF1"/>
<path d="M34.2937 40.7016L36.3659 37.7196C36.8024 37.0914 36.3529 36.2316 35.5879 36.2316H33.5157H31.4435C30.6785 36.2316 30.229 37.0914 30.6655 37.7196L32.7377 40.7016C33.1146 41.2439 33.9168 41.2439 34.2937 40.7016Z" fill="#04A8F0"/>
</svg>
